{"title":"Getaway (2013) BRRIP XviD AC3-FWOLF","uid":9582690,"size":1472662329,"categoryP":"video","categoryS":"movies","magnet":"?xt=urn:btih:06212ec48836d9a7bfb5836032eeeaec749abcff&amp;dn=Getaway+%282013%29+BRRIP+XviD+AC3-FWOLF&amp;tr=udp%3A%2F%2Ftracker.openbittorrent.com%3A80&amp;tr=udp%3A%2F%2Fopen.demonii.com%3A1337&amp;tr=udp%3A%2F%2Ftracker.coppersurfer.tk%3A6969&amp;tr=udp%3A%2F%2Fexodus.desync.com%3A6969","seeders":0,"leechers":1,"uploader":"sakhslitsa","files":4,"time":1391791376,"description":" &lt;a href=&quot;http://www.imdb.com/title/tt2167202/&quot; rel=&quot;nofollow&quot; target=&quot;_NEW&quot;&gt;http://www.imdb.com/title/tt2167202/&lt;/a&gt;\n\n\nFormat : AVI\nFormat/Info : Audio Video Interleave\nFile size : 1.36 GiB\nDuration : 1h 30mn\nOverall bit rate : 2 158 Kbps\n\nVideo\nID : 0\nFormat : MPEG-4 Visual\nFormat profile : Advanced Simple@L5\nFormat settings, BVOP : 2\nFormat settings, QPel : No\nFormat settings, GMC : No warppoints\nFormat settings, Matrix : Default (H.263)\nCodec ID : XVID\nCodec ID/Hint : XviD\nDuration : 1h 30mn\nBit rate : 1 702 Kbps\nWidth : 720 pixels\nHeight : 304 pixels\nDisplay aspect ratio : 2.35:1\nFrame rate : 23.976 fps\nColor space : YUV\nChroma subsampling : 4:2:0\nBit depth : 8 bits\nScan type : Progressive\nCompression mode : Lossy\nBits/(Pixel*Frame) : 0.324\nStream size : 1.07 GiB (79%)\nWriting library : XviD 1.2.1 (UTC 2008-12-04)\n\nAudio\nID : 1\nFormat : AC-3\nFormat/Info : Audio Coding 3\nMode extension : CM (complete main)\nFormat settings, Endianness : Big\nCodec ID : 2000\nDuration : 1h 30mn\nBit rate mode : Constant\nBit rate : 448 Kbps\nChannel(s) : 6 channels\nChannel positions : Front: L C R, Side: L R, LFE\nSampling rate : 48.0 KHz\nBit depth : 16 bits\nCompression mode : Lossy\nStream size : 289 MiB (21%)\nAlignment : Aligned on interleaves\nInterleave, duration : 64 ms (1.53 video frames)\nInterleave, preload duration : 192 ms\nTitle : English\n\n\n\nEncoded....................FWOLF\n\nSource..................... 720p.BluRay.x264-SPARKS (Thanks!)\n\nSample.....................Yes\n\nSubs.......................(idx)...No\n\nSubs.......................(srt) ...No\n\n\nGreetz To: PsiX | Blacksheep | CFR | tomcat-12...\n.....and all P2P Encoders and Groups.....","torrent":{"xt":"urn:btih:06212ec48836d9a7bfb5836032eeeaec749abcff","amp;dn":"Getaway+%282013%29+BRRIP+XviD+AC3-FWOLF","amp;tr":["udp%3A%2F%2Ftracker.openbittorrent.com%3A80","udp%3A%2F%2Fopen.demonii.com%3A1337","udp%3A%2F%2Ftracker.coppersurfer.tk%3A6969","udp%3A%2F%2Fexodus.desync.com%3A6969"],"infoHash":"06212ec48836d9a7bfb5836032eeeaec749abcff","infoHashBuffer":{"type":"Buffer","data":[6,33,46,196,136,54,217,167,191,181,131,96,50,238,234,236,116,154,188,255]},"announce":[],"urlList":[]}}